<svg width="32" height="32" viewBox="0 0 32 32" fill="none" xmlns="http://www.w3.org/2000/svg">
<path d="M12 29.3334H20C26.6667 29.3334 29.3334 26.6667 29.3334 20.0001V12.0001C29.3334 5.33341 26.6667 2.66675 20 2.66675H12C5.33335 2.66675 2.66669 5.33341 2.66669 12.0001V20.0001C2.66669 26.6667 5.33335 29.3334 12 29.3334Z" stroke="#7065F0" stroke-width="3" stroke-linecap="round" stroke-linejoin="round"/>
<path d="M12.1333 15.9997V14.0264C12.1333 11.4797 13.9333 10.4531 16.1333 11.7197L17.84 12.7064L19.5466 13.6931C21.7466 14.9597 21.7466 17.0397 19.5466 18.3064L17.84 19.2931L16.1333 20.2797C13.9333 21.5464 12.1333 20.5064 12.1333 17.9731V15.9997Z" stroke="#7065F0" stroke-width="3" stroke-miterlimit="10" stroke-linecap="round" stroke-linejoin="round"/>
</svg>
